<?xml version="1.0" standalone="no"?>
<!DOCTYPE svg PUBLIC "-//W3C//DTD SVG 20010904//EN"
 "http://www.w3.org/TR/2001/REC-SVG-20010904/DTD/svg10.dtd">
<svg version="1.0" xmlns="http://www.w3.org/2000/svg"
 width="89.000000pt" height="89.000000pt" viewBox="0 0 89.000000 89.000000"
 preserveAspectRatio="xMidYMid meet">
<metadata>
Created by potrace 1.11, written by Peter Selinger 2001-2013
</metadata>
<g transform="translate(0.000000,89.000000) scale(0.100000,-0.100000)"
fill="#000000" stroke="none">
<path d="M342 780 c-70 -21 -89 -32 -144 -84 -43 -40 -47 -64 -18 -111 25 -41
51 -53 65 -29 6 9 27 37 48 61 20 24 37 49 37 55 0 6 20 33 45 59 42 45 56 70
38 68 -5 0 -37 -9 -71 -19z m-22 -44 c0 -11 -53 -96 -60 -96 -5 0 -12 -9 -15
-20 -9 -28 -24 -25 -36 7 -8 22 -6 30 13 51 33 35 98 74 98 58z"/>
<path d="M394 641 c-33 -22 -87 -66 -121 -98 -93 -87 -88 -104 58 -207 157
-109 189 -108 322 15 133 124 130 151 -29 259 -127 85 -146 87 -230 31z m135
-56 c89 -47 164 -97 169 -114 5 -16 -115 -134 -160 -157 -38 -20 -51 -14 -160
62 -113 80 -113 80 -26 169 41 41 82 75 92 75 10 0 48 -16 85 -35z"/>
<path d="M392 518 c-48 -47 -51 -59 -19 -88 26 -25 107 -80 118 -80 14 0 89
93 89 111 0 21 -100 99 -128 99 -10 0 -37 -19 -60 -42z m89 -29 c16 -11 29
-25 29 -31 0 -17 -41 -48 -54 -41 -44 25 -58 57 -34 81 17 17 25 15 59 -9z"/>
<path d="M709 647 c-44 -29 -43 -47 3 -72 37 -20 37 -20 64 1 30 22 51 50 43
58 -3 3 -21 12 -41 20 -34 15 -38 14 -69 -7z m71 -27 c0 -4 -8 -14 -18 -23
-16 -15 -20 -15 -38 -2 -18 14 -18 16 -1 29 17 13 57 11 57 -4z"/>
<path d="M115 521 c-16 -10 -43 -32 -58 -49 -37 -39 -27 -61 43 -91 47 -20 52
-21 80 -6 l31 16 -22 35 c-18 30 -20 39 -10 62 11 22 10 28 -5 39 -23 17 -23
16 -59 -6z m29 -45 c-3 -8 1 -28 10 -44 25 -48 -13 -60 -54 -17 l-23 25 23 25
c25 27 53 34 44 11z"/>
<path d="M722 375 c-50 -22 -41 -54 21 -79 47 -20 47 -20 75 1 39 29 38 47 -3
72 -42 25 -49 25 -93 6z m73 -28 c36 -27 -12 -50 -56 -27 -24 13 -24 27 -1 33
30 8 38 7 57 -6z"/>
<path d="M224 333 c-26 -29 -32 -79 -11 -105 24 -31 231 -148 262 -148 15 0
-3 33 -70 129 -54 76 -87 112 -116 128 l-41 22 -24 -26z m86 -57 c4 -12 24
-41 44 -65 55 -66 48 -79 -19 -35 -51 34 -105 85 -105 99 0 37 66 38 80 1z"/>
</g>
</svg>
