<svg width="272" height="496" viewBox="0 0 272 496" fill="none" xmlns="http://www.w3.org/2000/svg">
<path d="M232 0H40C29.395 0.0119105 19.2278 4.23001 11.7289 11.7289C4.23001 19.2278 0.0119105 29.395 0 40V456C0.0119105 466.605 4.23001 476.772 11.7289 484.271C19.2278 491.77 29.395 495.988 40 496H232C242.605 495.988 252.772 491.77 260.271 484.271C267.77 476.772 271.988 466.605 272 456V40C271.988 29.395 267.77 19.2278 260.271 11.7289C252.772 4.23001 242.605 0.0119105 232 0ZM190.242 16L185.442 40H86.559L81.759 16H190.242ZM256 456C255.993 462.363 253.462 468.463 248.963 472.963C244.463 477.462 238.363 479.993 232 480H40C33.637 479.993 27.5366 477.462 23.0373 472.963C18.538 468.463 16.0071 462.363 16 456V40C16.0071 33.637 18.538 27.5367 23.0373 23.0373C27.5366 18.538 33.637 16.0071 40 16H65.441L72.155 49.569C72.5177 51.3825 73.4976 53.0144 74.9279 54.1869C76.3582 55.3594 78.1505 56.0001 80 56H192C193.849 56.0001 195.642 55.3594 197.072 54.1869C198.502 53.0144 199.482 51.3825 199.845 49.569L206.559 16H232C238.363 16.0071 244.463 18.538 248.963 23.0373C253.462 27.5367 255.993 33.637 256 40V456Z" fill="black"/>
<path d="M88 448H40C37.8783 448 35.8434 448.843 34.3431 450.343C32.8428 451.843 32 453.878 32 456C32 458.122 32.8428 460.157 34.3431 461.657C35.8434 463.157 37.8783 464 40 464H88C90.1217 464 92.1566 463.157 93.6569 461.657C95.1572 460.157 96 458.122 96 456C96 453.878 95.1572 451.843 93.6569 450.343C92.1566 448.843 90.1217 448 88 448Z" fill="black"/>
<path d="M120 448H112C109.878 448 107.843 448.843 106.343 450.343C104.843 451.843 104 453.878 104 456C104 458.122 104.843 460.157 106.343 461.657C107.843 463.157 109.878 464 112 464H120C122.122 464 124.157 463.157 125.657 461.657C127.157 460.157 128 458.122 128 456C128 453.878 127.157 451.843 125.657 450.343C124.157 448.843 122.122 448 120 448Z" fill="black"/>
</svg>
