<svg width="512" height="512" viewBox="0 0 512 512" fill="none" xmlns="http://www.w3.org/2000/svg">
<path d="M471.387 325.012C454.418 310.102 433.84 297.219 410.219 286.723C400.121 282.238 388.305 286.785 383.82 296.879C379.336 306.973 383.883 318.789 393.977 323.277C413.895 332.129 431.059 342.82 444.984 355.059C462.152 370.145 472 391.988 472 415V452C472 463.027 463.027 472 452 472H60C48.9727 472 40 463.027 40 452V415C40 391.988 49.8477 370.145 67.0156 355.059C87.2227 337.301 146.098 296 256 296C337.605 296 404 229.605 404 148C404 66.3945 337.605 0 256 0C174.395 0 108 66.3945 108 148C108 195.707 130.695 238.207 165.852 265.289C101.523 279.43 61.5078 306.648 40.6133 325.012C14.8047 347.688 0 380.484 0 415V452C0 485.086 26.9141 512 60 512H452C485.086 512 512 485.086 512 452V415C512 380.484 497.195 347.688 471.387 325.012ZM148 148C148 88.4492 196.449 40 256 40C315.551 40 364 88.4492 364 148C364 207.551 315.551 256 256 256C196.449 256 148 207.551 148 148Z" fill="black"/>
</svg>
